<?xml version="1.0" encoding="utf-8"?>
<!-- Generator: Adobe Illustrator 25.2.1, SVG Export Plug-In . SVG Version: 6.00 Build 0)  -->
<svg version="1.1" id="Capa_2_1_" xmlns="http://www.w3.org/2000/svg" xmlns:xlink="http://www.w3.org/1999/xlink" x="0px" y="0px"
	 viewBox="0 0 500 500" style="enable-background:new 0 0 500 500;" xml:space="preserve">
<style type="text/css">
	.st0{fill:#D4A067;}
</style>
<g id="Capa_1-2">
	<g>
		<path class="st0" d="M70.2,263c-15.1-3.6-30.3,5.7-34,20.8c-3.6,15.1,5.7,30.4,20.8,34c15.1,3.6,30.4-5.7,34-20.8
			C94.6,281.9,85.3,266.6,70.2,263L70.2,263z M78.5,294c-2,8.2-10.2,13.3-18.5,11.3c-8.2-2-13.3-10.3-11.3-18.5
			c2-8.2,10.2-13.3,18.5-11.3C75.4,277.5,80.5,285.7,78.5,294L78.5,294z"/>
		<path class="st0" d="M186,293.5c-15.8-0.8-29.2,9.9-29.9,23.7c-0.7,13.8,11.6,25.7,27.4,26.5c15.8,0.8,29.2-9.9,29.9-23.7
			C214.1,306.1,201.8,294.2,186,293.5z M184.1,332.2c-8.6-0.4-15.3-6.9-14.9-14.4c0.4-7.6,7.6-13.3,16.2-12.9
			c8.6,0.4,15.3,6.9,14.9,14.4C200,326.8,192.8,332.6,184.1,332.2L184.1,332.2z"/>
		<path class="st0" d="M473.3,275.7c-0.5,0.1-1,0.1-1.4,0.1c-2.8,0-5.2-1.9-5.9-4.7l-3.2-13.5c-0.8-3.3,1.3-6.5,4.5-7.3l17.8-4.2
			l-7.1-30.3c-1.9-8.3-10.2-13.4-18.5-11.5l-24.6,5.7l-15-34.4c-3-7-8-13.9-18.5-11.5l-111.7,26c-8.2,1.9-14.4,24.9-14.1,34.1
			l4.9,21.7l-6.8,1.6l-3.9-0.4l-5.1-1.4l-10.5,0.2l-5,7.2l-3,4.8l-1.2,2.7l-0.9,1.4l2.8,67l19.3,2.5l1.6-4l2.6-6.5l5,5.6l2.1,2.3
			l8.3-3.8c-0.6-2.6-1.5-6-1.5-8.6c0.1-15,7.8-27.2,22.9-31.5c27.5-7.7,35.8,7,40,24.9l54.3-12.6c-4.2-17.9,7-35.8,24.9-40
			c17.9-4.2,35.8,7,40,24.9l10.6-2.4c4.4-1,7.9-3.9,9.9-7.5L473.3,275.7L473.3,275.7z M248,261.5l8.4-9.8l9.4-2.2l6.6,2.4L248,261.5
			z M288.4,244.3l-6.6-25c-0.2-3.5,4.8-19,8.1-20.9l10,43.2L288.4,244.3L288.4,244.3z M306.8,240l-10.1-43.4l47.4-11l10.1,43.4
			L306.8,240L306.8,240z M361.1,227.4L351,184l47.8-11.1l10.1,43.4L361.1,227.4L361.1,227.4z M415.7,214.7l-10-43.3
			c2.4,0,4.8,1.4,7.4,7.4l14.4,33.2L415.7,214.7L415.7,214.7z"/>
		<path class="st0" d="M313.5,289.6c-15.5,0.5-27.8,12.5-27.3,26.6c0.5,14.1,13.5,25.2,29,24.7c15.5-0.5,27.8-12.5,27.3-26.6
			C342.1,300.1,329.1,289,313.5,289.6L313.5,289.6z M314.9,329.2c-8.5,0.3-15.5-5.7-15.8-13.4c-0.3-7.7,6.4-14.2,14.8-14.5
			s15.5,5.7,15.8,13.4C330,322.4,323.4,328.9,314.9,329.2L314.9,329.2z"/>
		<path class="st0" d="M461.8,283.5c-3.5-15.2-18.7-24.6-33.8-21.1c-15.1,3.5-24.6,18.7-21.1,33.8c3.5,15.1,18.7,24.6,33.9,21
			C455.9,313.9,465.3,298.7,461.8,283.5L461.8,283.5z M437.8,304.9c-8.2,1.9-16.5-3.2-18.4-11.5c-1.9-8.2,3.2-16.5,11.5-18.4
			c8.3-1.9,16.5,3.2,18.4,11.5C451.2,294.7,446,302.9,437.8,304.9L437.8,304.9z"/>
		<polygon class="st0" points="343.3,214.6 316.8,202.4 326.8,222.8 316,221.8 319.2,235.4 308.4,231.3 300.9,199.1 336.8,190.7 
			335.2,195 345.1,195.8 337.1,202.9 		"/>
		<path class="st0" d="M242.4,262.4l-4-9.9l-5.5-4l-5.7,2.1l-7.2,4.9l-3.2-0.1l4.9-52.3c0.8-6.9-1.4-8.5-11.8-11L98.5,165.3
			c-8.3-2-14.8,3-18.5,11.3L65.2,211L40.1,205c-8.3-2-16.6,3.1-18.5,11.3l-7.1,29.2l18.7,5.1c1.6,0.4,2.9,1.4,3.7,2.8
			c0.8,1.4,1,3,0.6,4.6l-3.7,13.3c-0.7,2.6-3.1,4.5-5.9,4.5c-0.5,0-1-0.1-1.6-0.2l-14.9-4.1c1.9,4.2,5.6,7.5,10.4,8.7l9.3,2.3
			c4.3-17.9,22.4-28.8,40.2-24.5c17.8,4.3,28.8,22.3,24.5,40.2l57,13.8c4.3-17.9,11.7-29.1,29.5-24.8c15.2,3.7,33.3,16.9,33.3,31.9
			c0,2.6-0.3,5.2-0.9,7.9l3.6,9.6l4.1-2.8l3.9,6.4l4.9-9.2l3.4,2.4l9.8-5.2L242.4,262.4L242.4,262.4z M84.3,215.6l-11.6-2.8
			l14.2-33.2c1.4-3.2,4-6.9,7.8-7L84.3,215.6L84.3,215.6z M91.2,217.3l10.5-43.4l47.3,11.4l-10.5,43.4L91.2,217.3L91.2,217.3z
			 M145.3,230.4l10.5-43.4l47.7,11.6L193,241.9C193,241.9,145.3,230.4,145.3,230.4z M213.5,210.3l-2,36.1l-11.7-2.8l10.4-43.2
			C212.4,201.5,213.9,203.8,213.5,210.3L213.5,210.3z M224,256.8l9.1-3.2l3.5,3.2l1.9,4.7L224,256.8L224,256.8z"/>
		<polygon class="st0" points="199.1,201 192,230.5 188.1,223.9 176,229.2 183.7,211 167.1,211.3 173.8,201 157.1,197 160.4,191.6 
					"/>
		<path class="st0" d="M30.4,270.4c-0.4,1.4-1.8,2.2-3.1,1.8l-25.3-6.9c-1.4-0.4-2.2-1.8-1.8-3.1l3.7-13.4c0.4-1.4,1.8-2.2,3.1-1.8
			l25.3,6.9c1.4,0.4,2.2,1.8,1.8,3.1C34,257.1,30.4,270.4,30.4,270.4z"/>
		<path class="st0" d="M499.9,263.2c0.3,1.4-0.5,2.8-1.9,3.1l-25.6,6.1c-1.4,0.3-2.8-0.5-3.1-1.9l-3.2-13.5
			c-0.3-1.4,0.5-2.8,1.9-3.1l25.6-6.1c1.4-0.3,2.8,0.5,3.1,1.9L499.9,263.2L499.9,263.2z"/>
		<polygon class="st0" points="241.9,225.9 224,184.1 233.6,177.3 		"/>
		<polygon class="st0" points="250.7,170.6 246.6,215 241.4,164.3 247.5,156.3 250.2,161 		"/>
		<polygon class="st0" points="275.3,186 246.9,241 261.5,173.1 		"/>
	</g>
</g>
</svg>
