<?xml version="1.0" encoding="UTF-8"?>
<svg id="Capa_2" data-name="Capa 2" xmlns="http://www.w3.org/2000/svg" viewBox="0 0 500 187.35">
  <defs>
    <style>
      .cls-1 {
        fill: #d4a067;
      }
    </style>
  </defs>
  <g id="Capa_1-2" data-name="Capa 1">
    <g>
      <path class="cls-1" d="m70.21,106.67c-15.12-3.64-30.35,5.67-34.02,20.76-3.64,15.12,5.67,30.35,20.76,34.03,15.12,3.64,30.38-5.67,34.02-20.76,3.64-15.12-5.67-30.38-20.76-34.02Zm8.26,30.98c-1.99,8.23-10.25,13.3-18.48,11.31-8.23-2-13.3-10.29-11.31-18.52,1.99-8.23,10.25-13.27,18.52-11.27,8.23,1.99,13.27,10.25,11.27,18.48Z"/>
      <path class="cls-1" d="m186.04,137.15c-15.79-.77-29.19,9.87-29.86,23.7-.67,13.83,11.62,25.7,27.41,26.46,15.82.77,29.19-9.87,29.89-23.7.66-13.82-11.66-25.69-27.44-26.46Zm-1.89,38.71c-8.61-.42-15.26-6.86-14.91-14.38.35-7.56,7.63-13.3,16.24-12.88,8.61.39,15.3,6.86,14.91,14.39-.35,7.53-7.63,13.3-16.24,12.88Z"/>
      <path class="cls-1" d="m473.28,119.41c-.46.11-.95.14-1.4.14-2.83,0-5.25-1.89-5.92-4.66l-3.18-13.47c-.77-3.25,1.26-6.51,4.52-7.28l17.82-4.24-7.07-30.28c-1.92-8.26-10.19-13.41-18.45-11.48l-24.61,5.71-14.95-34.41c-3.01-6.97-8.05-13.9-18.45-11.48l-111.66,25.97c-8.22,1.93-14.42,24.92-14.07,34.06l4.94,21.74-6.79,1.58-3.88-.35-5.11-1.44-10.5.25-5.01,7.25-3.01,4.83-1.16,2.66-.88,1.4,2.8,66.96,19.32,2.49,1.58-3.99,2.56-6.51,5.04,5.6,2.06,2.31,8.26-3.75c-.63-2.63-1.5-6.05-1.5-8.64.1-15.02,7.77-27.2,22.85-31.47,27.51-7.74,35.81,6.97,39.98,24.89l54.29-12.64c-4.17-17.88,6.97-35.81,24.89-39.97,17.89-4.16,35.81,7,39.98,24.89l10.6-2.45c4.41-1.02,7.91-3.85,9.94-7.49l-13.82,3.29Zm-225.32-14.21l8.4-9.77,9.35-2.17,6.65,2.45-24.4,9.49Zm40.43-17.22l-6.61-25.03c-.18-3.53,4.79-18.97,8.15-20.86l10.05,43.2-11.58,2.7Zm18.45-4.31l-10.11-43.44,47.36-11.03,10.11,43.44-47.36,11.03Zm54.22-12.6l-10.11-43.44,47.78-11.13,10.12,43.44-47.78,11.13Zm54.64-12.71l-10.05-43.26c2.38,0,4.76,1.44,7.35,7.39l14.35,33.15-11.66,2.73Z"/>
      <path class="cls-1" d="m313.52,133.27c-15.51.53-27.76,12.46-27.27,26.6.49,14.14,13.51,25.24,29.05,24.68,15.54-.53,27.76-12.46,27.27-26.6-.49-14.14-13.51-25.24-29.05-24.68Zm1.4,39.59c-8.47.28-15.54-5.7-15.82-13.41-.28-7.74,6.37-14.21,14.84-14.49,8.47-.28,15.54,5.71,15.79,13.41.28,7.7-6.37,14.21-14.8,14.49Z"/>
      <path class="cls-1" d="m461.76,127.21c-3.5-15.16-18.7-24.61-33.81-21.07-15.12,3.54-24.57,18.69-21.07,33.85,3.54,15.12,18.73,24.57,33.85,21.04,15.12-3.5,24.57-18.7,21.04-33.81Zm-23.98,21.32c-8.22,1.89-16.45-3.22-18.38-11.48-1.92-8.22,3.19-16.49,11.45-18.38,8.26-1.92,16.49,3.19,18.41,11.45,1.92,8.22-3.22,16.49-11.48,18.41Z"/>
      <polygon class="cls-1" points="343.28 58.32 316.76 46.07 326.78 66.52 316.03 65.52 319.18 79.05 308.4 75 300.89 42.74 336.79 34.39 335.22 38.7 345.06 39.49 337.06 46.61 343.28 58.32"/>
      <path class="cls-1" d="m242.36,106.1l-3.96-9.94-5.53-3.96-5.67,2.13-7.25,4.87-3.25-.11,4.9-52.26c.81-6.93-1.37-8.47-11.76-10.99L98.46,8.94c-8.26-2.03-14.81,3.01-18.55,11.31l-14.7,34.44-25.1-6.06c-8.26-1.99-16.56,3.08-18.55,11.34l-7.07,29.16,18.66,5.11c1.57.42,2.87,1.44,3.67,2.83.8,1.4,1.02,3.05.59,4.62l-3.67,13.33c-.7,2.63-3.12,4.48-5.85,4.48-.53,0-1.05-.07-1.58-.21l-14.88-4.06c1.89,4.2,5.6,7.49,10.43,8.68l9.31,2.28c4.34-17.89,22.37-28.84,40.22-24.54,17.85,4.3,28.84,22.29,24.54,40.18l56.99,13.79c4.34-17.89,11.69-29.09,29.54-24.78,15.23,3.71,33.29,16.87,33.32,31.85,0,2.63-.31,5.25-.95,7.91l3.61,9.56,4.06-2.77,3.92,6.44,4.9-9.24,3.36,2.45,9.77-5.22-2.1-65.74ZM84.32,59.3l-11.55-2.8,14.18-33.25c1.44-3.22,3.99-6.86,7.81-7.04l-10.43,43.09Zm6.86,1.68l10.47-43.37,47.29,11.41-10.5,43.37-47.25-11.41Zm54.08,13.06l10.5-43.37,47.71,11.55-10.5,43.37-47.71-11.55Zm68.22-20.02l-2,36.05-11.66-2.83,10.43-43.16c2.17,1.08,3.61,3.43,3.22,9.94Zm10.54,46.45l9.1-3.22,3.53,3.22,1.92,4.73-14.56-4.73Z"/>
      <polygon class="cls-1" points="199.1 44.66 191.96 74.2 188.1 67.59 175.96 72.88 183.66 54.66 167.12 54.93 173.84 44.7 157.11 40.65 160.38 35.3 199.1 44.66"/>
      <path class="cls-1" d="m30.38,114.11c-.38,1.37-1.78,2.17-3.15,1.8l-25.34-6.93c-1.36-.37-2.17-1.78-1.8-3.15l3.65-13.36c.37-1.36,1.79-2.17,3.15-1.79l25.34,6.92c1.36.37,2.17,1.78,1.79,3.15l-3.64,13.36Z"/>
      <path class="cls-1" d="m499.93,106.86c.33,1.38-.53,2.76-1.9,3.08l-25.56,6.05c-1.38.33-2.76-.52-3.09-1.9l-3.19-13.48c-.32-1.37.53-2.75,1.91-3.08l25.56-6.05c1.38-.32,2.76.52,3.09,1.9l3.19,13.48Z"/>
      <polygon class="cls-1" points="241.88 69.57 224.01 27.77 233.56 21 241.88 69.57"/>
      <polygon class="cls-1" points="250.66 14.32 246.58 58.69 241.41 7.94 247.54 0 250.25 4.71 250.66 14.32"/>
      <polygon class="cls-1" points="275.34 29.69 246.88 84.66 261.51 16.8 275.34 29.69"/>
    </g>
  </g>
</svg>