<?xml version="1.0" encoding="UTF-8"?>
<svg id="Capa_2" data-name="Capa 2" xmlns="http://www.w3.org/2000/svg" viewBox="0 0 500.38 500">
  <defs>
    <style>
      .cls-1, .cls-2 {
        fill: #818284;
      }

      .cls-3 {
        fill: #fff;
      }

      .cls-4 {
        fill: #d4a067;
      }

      .cls-2 {
        stroke: #525354;
        stroke-width: .75px;
      }

      .cls-2, .cls-5 {
        stroke-miterlimit: 10;
      }

      .cls-6 {
        fill: none;
      }

      .cls-5 {
        fill: #ddac7a;
        stroke: #d4a067;
        stroke-width: 2px;
      }
    </style>
  </defs>
  <g id="Object">
    <polyline class="cls-2" points="367.24 112.01 331.94 146.47 300.19 177.43 252.93 223.54 220.11 255.55 178.66 295.99 145.83 328.01 138.71 334.95 146.24 342.28 426.32 69.06 426.33 69.06 418.8 61.73 389.14 90.66"/>
    <polygon class="cls-6" points="308.57 424.14 366.86 424.14 308.57 479.03 308.57 424.14"/>
    <rect class="cls-1" x="41.54" y="69.47" width="294.76" height="30.97"/>
    <polygon class="cls-1" points="40.78 177.43 300.19 177.43 331.94 146.47 40.78 146.47 40.78 177.43"/>
    <polygon class="cls-1" points="41.79 255.55 220.11 255.55 252.93 223.54 41.79 223.54 41.79 255.55"/>
    <polygon class="cls-1" points="347.34 255.55 347.34 223.54 342.33 223.54 309.5 255.55 347.34 255.55"/>
    <polygon class="cls-1" points="347.34 328.01 347.34 295.99 268.05 295.99 235.24 328.01 347.34 328.01"/>
    <polygon class="cls-1" points="41.79 328.01 145.83 328.01 178.66 295.99 41.79 295.99 41.79 328.01"/>
    <polygon class="cls-1" points="103.08 400.47 104.14 398.36 119.21 368.46 41.79 368.46 41.79 400.47 103.08 400.47"/>
    <path class="cls-1" d="m174.47,385.43l-31.38,15.04h128.32v-32.01h-77.63l-10.34,10.1h-.02s0,0,0,0l-7.52-7.34-2.84-2.76h-8.31l10.81,10.55c.95.92,1.36,2.2,1.15,3.48-.22,1.28-1.05,2.36-2.25,2.94Z"/>
    <path class="cls-4" d="m389.15,90.66V10.67c0-2.81-1.17-5.56-3.2-7.55-2.04-1.99-4.86-3.13-7.74-3.13H10.95c-2.88,0-5.7,1.14-7.74,3.13C1.17,5.12,0,7.86,0,10.67v478.65c0,2.81,1.17,5.56,3.21,7.55,2.04,1.99,4.86,3.13,7.74,3.13h300.36c2.88,0,5.67-1.12,7.71-3.1l33.75-32.7.04-.04,33.15-32.48c2.03-2,3.19-4.72,3.19-7.53v-246.27l-21.9,21.36v203.56h-69.62c-2.88,0-5.7,1.14-7.74,3.13-2.04,1.99-3.2,4.73-3.2,7.55v65.18H21.89V21.35h345.36v90.66l21.9-21.36Zm-80.57,333.48h58.29l-58.29,54.89v-54.89Z"/>
    <polygon class="cls-3" points="309.5 255.55 309.5 255.55 326.23 239.23 309.5 255.55"/>
    <polygon class="cls-5" points="167.12 370.22 447.21 96.99 427.35 77.62 147.26 350.84 167.12 370.22"/>
    <polygon class="cls-2" points="183.42 378.56 183.42 378.55 463.5 105.33 455.98 98 175.9 371.22 183.42 378.56"/>
    <path class="cls-5" d="m138.26,342.61c-.93-.91-2.26-1.32-3.58-1.11-1.31.21-2.42,1.02-3.01,2.19l-12.46,24.77-15.06,29.9,14.28,13.92,24.66-11.82,31.38-15.04c1.19-.58,2.02-1.66,2.25-2.94.2-1.28-.21-2.57-1.15-3.48l-10.81-10.55-26.49-25.85Z"/>
    <path class="cls-2" d="m95.67,415.19c-.77,1.54-.46,3.38.79,4.6,1.24,1.21,3.13,1.52,4.71.76l17.26-8.27-14.28-13.92-1.07,2.11-7.41,14.73Z"/>
    <path class="cls-2" d="m446.04,35.15l-5.16,5.03-8.71,8.5-9.35,9.11,44.7,43.6,9.35-9.12,8.7-8.49,5.17-5.04c12.34-12.04,12.33-31.56,0-43.6-12.35-12.04-32.36-12.05-44.7,0Z"/>
  </g>
</svg>