<?xml version="1.0" encoding="UTF-8"?>
<svg id="Capa_2" data-name="Capa 2" xmlns="http://www.w3.org/2000/svg" viewBox="0 0 500 500">
  <defs>
    <style>
      .cls-1 {
        fill: #fff;
      }

      .cls-2 {
        fill: #d4a067;
      }

      .cls-3 {
        fill: #c7c7c7;
      }

      .cls-4 {
        fill: #afafaf;
      }

      .cls-5 {
        fill: none;
      }

      .cls-6 {
        fill: #ddb287;
      }
    </style>
  </defs>
  <g id="Capa_1-2" data-name="Capa 1">
    <path class="cls-5" d="m499.84,250.97c0,80.69-.08,161.38.16,242.06.02,5.8-1.17,6.97-6.97,6.96-162.02-.2-324.05-.2-486.07,0-5.8,0-6.97-1.17-6.96-6.96.2-162.02.2-324.05,0-486.07C0,1.17,1.17,0,6.96,0,168.99.2,331.01.2,493.03,0c5.8,0,6.98,1.16,6.97,6.96-.24,81.34-.16,162.67-.16,244.01Z"/>
    <path class="cls-2" d="m484.25,234.57c.95,9.55-3.83,15.09-11.48,19.32-10.45,5.79-18.69,1.67-26.56-5.06-26.98-23.06-54.04-46.04-80.89-69.25-25.42-21.97-50.55-44.28-75.95-66.28-12.32-10.67-25-20.91-37.39-31.49-2.66-2.27-4.72-2.74-7.5-.31-14.47,12.63-28.99,25.19-43.55,37.71-17.2,14.79-34.5,29.45-51.68,44.26-15.51,13.38-30.88,26.93-46.38,40.33-18.62,16.1-37.09,32.37-56.06,48.04-8.15,6.74-22.99,4.99-29.15-2.24-7.94-9.33-7.61-21.54,2.18-30.39,17.08-15.43,34.82-30.11,52.22-45.18,15.72-13.61,31.27-27.42,47.03-40.98,16.48-14.18,33.18-28.11,49.67-42.27,15.78-13.55,31.55-27.1,47.04-40.97,5.97-5.35,12.25-10.32,18.18-15.74,7.7-7.05,19.84-6.85,28.14-.19,13.96,11.21,27.34,23.14,40.96,34.77,17,14.52,34.02,29.01,50.99,43.57,15.31,13.14,30.55,26.37,45.84,39.52,17.19,14.79,34.72,29.2,51.52,44.43,9.41,8.54,19.93,15.88,28.22,25.69,3.26,3.86,5.5,7.82,4.6,12.7Z"/>
    <path class="cls-2" d="m420.25,461.2c-.45,4.75-3.5,6.92-7.8,7.86-2.5.99-5.12.6-7.68.6-103.83.02-207.66.02-311.49,0-2.57,0-5.18.38-7.68-.6-2.93-1.54-7.69-.7-7.77-5.96-1.58-3.4-.79-7.01-.8-10.52-.05-63.04-.03-126.08-.07-189.11,0-3.53.56-7.11-.59-10.59,5.59-9.69,15.38-15.24,23.43-22.18,17.86-15.42,35.67-30.92,53.55-46.33,20.79-17.92,41.84-35.53,62.71-53.36,6.82-5.83,13.6-11.73,20.1-17.91,8.3-7.87,14.53-8.05,23.09-.72,30.05,25.73,60.33,51.19,90.29,77.02,22.28,19.21,44.24,38.79,66.26,58.3,2.05,1.82,4.92,3.4,4.42,6.96,1.24,2.09.83,4.41.83,6.65.02,64.41.02,128.82,0,193.23,0,2.24.4,4.55-.8,6.66Z"/>
    <path class="cls-4" d="m85.6,469.06c42.35-.11,84.7-.31,127.05-.3,66.6.02,133.2.19,199.8.3-3.04,2.78-6.79,1.56-10.2,1.56-102.15.07-204.3.07-306.45,0-3.42,0-7.16,1.21-10.2-1.56Z"/>
    <path class="cls-2" d="m76.37,252.88c2.06,1.72,1.56,4.09,1.56,6.31-.03,67.97-.07,135.94-.1,203.91-2.19-1.15-1.76-3.32-1.76-5.13.07-68.36.18-136.73.3-205.09Z"/>
    <path class="cls-2" d="m420.25,461.2c0-68.84-.02-137.69-.03-206.53,3.22,2.05,1.77,5.29,1.77,7.96.09,63.51.09,127.02,0,190.53,0,2.71,1.27,5.91-1.76,8.04Z"/>
    <path class="cls-1" d="m99.2,260.5c11.67-10.35,23.25-20.8,35.03-31.02,16.68-14.46,33.5-28.76,50.27-43.12,16.98-14.54,33.97-29.08,50.96-43.62.49-.42.97-.86,1.47-1.27,12.71-10.37,12.54-10.18,24.86.54,27.98,24.34,56.19,48.4,84.2,72.71,17.65,15.32,35.09,30.88,52.63,46.34,1.58,1.98,1.03,4.32,1.03,6.53.03,58.07.02,116.13.01,174.2,0,1.92.22,3.89-.71,5.7-2.43,1.3-5.07.78-7.63.78-95.12.03-190.23.02-285.35.01-2.25,0-4.54.3-6.71-.61-1.32-2.07-.88-4.39-.88-6.63-.02-57.96-.02-115.92,0-173.88,0-2.24-.4-4.55.81-6.66Z"/>
    <path class="cls-6" d="m99.44,447.03c45.65.11,91.3.3,136.95.29,54.07,0,108.14-.19,162.21-.29.64-.68,1.27-.62,1.87.06-2.24,3.56-5.83,2.14-8.83,2.14-95.08.08-190.16.08-285.24,0-3,0-6.59,1.42-8.83-2.14.6-.7,1.22-.72,1.87-.06Z"/>
    <path class="cls-3" d="m99.44,447.03l-.93.19-.94-.13c-.07-60.18-.14-120.36-.17-180.54,0-2.11-.83-4.63,1.79-6.04.08,62.18.16,124.35.25,186.53Z"/>
    <path class="cls-3" d="m400.48,447.09l-.94.13-.93-.19c0-61.99,0-123.98.01-185.97,3.38.86,1.99,3.66,1.99,5.57.02,60.15-.07,120.31-.13,180.46Z"/>
    <path class="cls-2" d="m243.95,231.78c7-1.67,11.98,2.37,17.26,5.17,6.32,3.35,12.37,7.2,18.66,10.6,9.57,5.17,13.56,14.9,10.35,25.54-1.98,6.54-6.28,13.68-4.99,19.54,1.28,5.79,10.07,7.67,15.76,10.84,9.13,5.09,17.6,10.74,28.72,12.74,14.53,2.6,25.98,13.52,39.09,20.23,3.86,1.98,7.66,4.11,11.38,6.35,8.05,4.85,11.54,15.55,7.65,23.09-4.05,7.85-13.72,10.21-23.15,5.05-15.41-8.43-33.28-14.6-45.15-26.63-11.84-12-26.05-18.63-39.08-27.81-4.15-2.93-7.33-3.87-11.06.88-3.16,4.03-7.35,7.24-11.06,10.84-7.52,7.28-17.05,8.88-26.29,3.87-8.78-4.76-17.4-9.84-25.96-14.99-7.98-4.79-11.6-14.16-9.23-24.12,5.02-21.04,13.57-40.06,30.51-54.58,5.07-4.34,9.73-8.35,16.59-6.61Z"/>
    <path class="cls-2" d="m251.18,384.98c5.17-.25,10.35,1.88,12.19,5.9,3.62,7.91,10.43,12.24,16.14,17.9,5.32,5.27,5,12.13,4.25,18.93-2.6,1.99-5.63,1.08-8.45,1.09-47.22.06-94.45.05-141.67.04-10.54,0-10.54-.04-9.23-10.81,1.96-10.06,21.38-30.9,30.92-33.17,31.95-1.05,63.89-1.27,95.84.12Z"/>
    <path class="cls-2" d="m249.03,354.1c.02,10.14-6.54,14.41-15.25,9.68-18.66-10.13-37.2-20.53-55.45-31.38-5.38-3.2-7.38-9.74-4.01-15.09,4.06-6.44,10.97-5.68,16.97-2.36,13.96,7.71,27.72,15.79,41.57,23.7,3.53,2.02,7.04,4.08,10.66,5.91,4.23,2.13,6.42,5.23,5.5,9.55Z"/>
    <path class="cls-2" d="m302.97,252.87c-4.87.98-8.45-2.33-12.09-4.37-14.99-8.42-29.59-17.52-44.5-26.09-6.38-3.67-11.21-8.28-8.08-15.9,2.96-7.2,10.67-7.89,18.92-2.99,15.8,9.4,31.77,18.51,47.47,28.08,5.3,3.23,12.87,5.63,8.64,14.95-2.16,4.75-5.2,6.98-10.36,6.32Z"/>
    <path class="cls-2" d="m124.42,418.03c-.8,7.52,1.67,10.21,10.06,10.12,49.76-.56,99.53-.37,149.29-.44-1.59,3.96-5.03,2.03-7.52,2.04-48.23.14-96.46.12-144.69.08-9.83,0-10.41-1.07-7.13-11.8Z"/>
    <path class="cls-2" d="m251.18,384.98c-31.95-.04-63.89-.08-95.84-.12,1.19-2.15,3.28-1.64,5.11-1.64,28.56-.03,57.13-.03,85.69,0,1.84,0,3.93-.45,5.04,1.77Z"/>
  </g>
</svg>