<?xml version="1.0" encoding="UTF-8"?>
<svg id="Capa_2" data-name="Capa 2" xmlns="http://www.w3.org/2000/svg" viewBox="0 0 500 500">
  <defs>
    <style>
      .cls-1 {
        fill: #d4a067;
      }

      .cls-2 {
        fill: none;
      }
    </style>
  </defs>
  <g id="Capa_1-2" data-name="Capa 1">
    <path class="cls-2" d="m499.84,250.97c0,80.69-.08,161.38.16,242.06.02,5.8-1.17,6.97-6.97,6.96-162.02-.2-324.05-.2-486.07,0-5.8,0-6.97-1.17-6.96-6.96.2-162.02.2-324.05,0-486.07C0,1.17,1.17,0,6.96,0,168.99.2,331.01.2,493.03,0c5.8,0,6.98,1.16,6.97,6.96-.24,81.34-.16,162.67-.16,244.01Z"/>
    <path class="cls-1" d="m484.25,234.57c.95,9.55-3.83,15.09-11.48,19.32-10.45,5.79-18.69,1.67-26.56-5.06-26.98-23.06-54.04-46.04-80.89-69.25-25.42-21.97-50.55-44.28-75.95-66.28-12.32-10.67-25-20.91-37.39-31.49-2.66-2.27-4.72-2.74-7.5-.31-14.47,12.63-28.99,25.19-43.55,37.71-17.2,14.79-34.5,29.45-51.68,44.26-15.51,13.38-30.88,26.93-46.38,40.33-18.62,16.1-37.09,32.37-56.06,48.04-8.15,6.74-22.99,4.99-29.15-2.24-7.94-9.33-7.61-21.54,2.18-30.39,17.08-15.43,34.82-30.11,52.22-45.18,15.72-13.61,31.27-27.42,47.03-40.98,16.48-14.18,33.18-28.11,49.67-42.27,15.78-13.55,31.55-27.1,47.04-40.97,5.97-5.35,12.25-10.32,18.18-15.74,7.7-7.05,19.84-6.85,28.14-.19,13.96,11.21,27.34,23.14,40.96,34.77,17,14.52,34.02,29.01,50.99,43.57,15.31,13.14,30.55,26.37,45.84,39.52,17.19,14.79,34.72,29.2,51.52,44.43,9.41,8.54,19.93,15.88,28.22,25.69,3.26,3.86,5.5,7.82,4.6,12.7Z"/>
    <g>
      <path class="cls-1" d="m415.74,242.68c-22.02-19.5-43.98-39.09-66.26-58.3-29.96-25.83-60.24-51.29-90.29-77.02-8.56-7.33-14.79-7.16-23.09.72-6.51,6.17-13.28,12.08-20.1,17.91-20.87,17.82-41.92,35.44-62.71,53.36-17.88,15.41-35.68,30.91-53.55,46.33-8.05,6.94-17.84,12.49-23.43,22.18,1.16,3.47.59,7.06.59,10.59.04,63.04.01,126.08.07,189.11,0,3.5-.79,7.11.8,10.52.08,5.26,4.84,4.42,7.77,5.96,42.35-.11,84.7-.31,127.05-.3,66.6.02,133.2.19,199.8.3,4.29-.94,7.35-3.1,7.8-7.86,0-68.84-.02-137.69-.03-206.53.5-3.56-2.37-5.15-4.42-6.96Zm-15.19,18.92c.02,60.15-.07,120.31-.13,180.46-2.24,3.56-5.83,2.14-8.83,2.14-95.08.08-190.16.08-285.24,0-3,0-6.59,1.42-8.83-2.14.38-.45.78-.62,1.18-.51-.65-1.78-.36-3.69-.36-5.55-.02-57.96-.02-115.92,0-173.88,0-2.24-.4-4.55.81-6.66,11.67-10.35,23.25-20.8,35.03-31.02,16.68-14.46,33.5-28.76,50.27-43.12,16.98-14.54,33.97-29.08,50.96-43.62.49-.42.97-.86,1.47-1.27,12.71-10.37,12.54-10.18,24.86.54,27.98,24.34,56.19,48.4,84.2,72.71,17.65,15.32,35.09,30.88,52.63,46.34,3.38.86,1.99,3.66,1.99,5.57Z"/>
      <path class="cls-1" d="m399.26,441.55c-.06.19-.13.38-.21.56l.43.09.94-.13c-.38-.43-.76-.61-1.15-.52Z"/>
      <path class="cls-1" d="m206.03,312.06c8.56,5.15,17.18,10.23,25.96,14.99,9.24,5.01,18.77,3.42,26.29-3.87,3.71-3.6,7.9-6.82,11.06-10.84,3.73-4.75,6.91-3.8,11.06-.88,13.03,9.18,27.24,15.81,39.08,27.81,11.87,12.03,29.74,18.2,45.15,26.63,9.43,5.16,19.1,2.81,23.15-5.05,3.89-7.54.41-18.24-7.65-23.09-3.72-2.24-7.51-4.37-11.38-6.35-13.11-6.71-24.57-17.62-39.09-20.23-11.12-1.99-19.59-7.65-28.72-12.74-5.7-3.17-14.49-5.05-15.76-10.84-1.29-5.86,3.01-13,4.99-19.54,3.21-10.63-.78-20.36-10.35-25.54-6.29-3.4-12.34-7.25-18.66-10.6-5.28-2.8-10.26-6.84-17.26-5.17-6.86-1.74-11.52,2.27-16.59,6.61-16.94,14.51-25.49,33.54-30.51,54.58-2.37,9.95,1.26,19.32,9.23,24.12Z"/>
      <path class="cls-1" d="m134.42,423.13c49.76-.55,99.53-.37,149.29-.44.75-6.8,1.07-13.66-4.25-18.93-5.71-5.66-12.52-9.99-16.14-17.9-1.84-4.02-7.03-6.15-12.19-5.9-31.95-.04-63.89-.08-95.84-.12-9.54,2.28-28.96,23.11-30.92,33.17-.8,7.52,1.67,10.21,10.06,10.12Z"/>
      <path class="cls-1" d="m178.26,327.37c18.25,10.85,36.78,21.25,55.45,31.38,8.71,4.73,15.27.47,15.25-9.68.91-4.33-1.27-7.42-5.5-9.55-3.63-1.83-7.14-3.89-10.66-5.91-13.85-7.91-27.61-15.99-41.57-23.7-6.01-3.32-12.91-4.08-16.97,2.36-3.37,5.35-1.38,11.89,4.01,15.09Z"/>
      <path class="cls-1" d="m246.33,217.38c14.9,8.58,29.51,17.67,44.5,26.09,3.64,2.04,7.22,5.35,12.09,4.37,5.15.65,8.2-1.57,10.36-6.32,4.23-9.32-3.33-11.72-8.64-14.95-15.69-9.57-31.67-18.68-47.47-28.08-8.25-4.91-15.96-4.21-18.92,2.99-3.13,7.62,1.7,12.23,8.08,15.9Z"/>
    </g>
  </g>
</svg>