<?xml version="1.0" encoding="UTF-8"?>
<svg xmlns="http://www.w3.org/2000/svg" xmlns:xlink="http://www.w3.org/1999/xlink" viewBox="0 0 500 420.52">
  <defs>
    <style>
      .cls-1, .cls-2 {
        fill: #818284;
      }

      .cls-3, .cls-2, .cls-4, .cls-5 {
        mix-blend-mode: multiply;
        opacity: .4;
      }

      .cls-6, .cls-4 {
        fill: #6aaded;
      }

      .cls-7 {
        fill: #d4a067;
      }

      .cls-8 {
        isolation: isolate;
      }

      .cls-5 {
        fill: #ddac7a;
        stroke: #eac3a0;
        stroke-miterlimit: 10;
      }

      .cls-9 {
        clip-path: url(#clippath);
      }

      .cls-10 {
        fill: none;
      }

      .cls-11 {
        fill: #9c9da0;
      }
    </style>
    <clipPath id="clippath">
      <path class="cls-10" d="m441.34,167.99l-177.09-108.24c-8.75-5.35-19.75-5.35-28.5,0L58.66,167.99c-4.45,2.72-7.16,7.55-7.16,12.77v220.17c0,10.82,8.77,19.59,19.59,19.59h357.83c10.82,0,19.59-8.77,19.59-19.59v-220.17c0-5.21-2.71-10.05-7.16-12.77Z"/>
    </clipPath>
  </defs>
  <g class="cls-8">
    <g id="Capa_2" data-name="Capa 2">
      <g id="OBJECTS">
        <g>
          <path class="cls-7" d="m441.34,167.99l-177.09-108.24c-8.75-5.35-19.75-5.35-28.5,0L58.66,167.99c-4.45,2.72-7.16,7.55-7.16,12.77v220.17c0,10.82,8.77,19.59,19.59,19.59h357.83c10.82,0,19.59-8.77,19.59-19.59v-220.17c0-5.21-2.71-10.05-7.16-12.77Z"/>
          <path class="cls-7" d="m500,155.5c0-5.62-2.92-10.83-7.71-13.75L269.21,5.41c-11.79-7.21-26.63-7.21-38.43,0L7.71,141.75c-4.79,2.93-7.71,8.14-7.71,13.75h0c0,12.59,13.78,20.32,24.53,13.75L230.79,43.19c11.8-7.21,26.63-7.21,38.43,0l206.26,126.07c10.74,6.57,24.53-1.17,24.53-13.75h0Z"/>
          <path class="cls-7" d="m412.29,14.87h-36.32c-5.38,0-9.74,4.36-9.74,9.74v22.58l55.8,34.1V24.61c0-5.38-4.36-9.74-9.74-9.74Z"/>
        </g>
        <g class="cls-9">
          <g>
            <g>
              <circle class="cls-1" cx="181.15" cy="188.26" r="42.53" transform="translate(-43.69 321.32) rotate(-76.72)"/>
              <polygon class="cls-7" points="242.54 307.27 265.51 321.4 265.51 293.13 242.54 307.27"/>
              <path class="cls-1" d="m244.69,257.27c-13.7-9-30.88-15.46-44.43-17.99-10.73-2.01-43.34-3.97-62.68,6.23-39.1,20.63-53.22,65.51-32.71,104.67l11.06,21.12,17.8,31.41c2.08,3.98,5.56,6.87,9.8,8.2,4.24,1.32,8.75.92,12.69-1.15,3.94-2.06,6.84-5.54,8.17-9.78,1.33-4.24.92-8.75-1.14-12.69l-27.82-53.12c-.31-.58-.08-1.3.5-1.61.58-.3,1.3-.08,1.61.5l27.82,53.12c2.36,4.51,2.82,9.66,1.31,14.51-1.52,4.85-4.83,8.82-9.34,11.18-2.76,1.45-5.77,2.18-8.81,2.18-1.91,0-3.83-.29-5.7-.88-4.85-1.52-8.82-4.83-11.18-9.34l-3.37-5.95v33.17c0,10.98,8.9,19.88,19.88,19.88h66.01c10.98,0,19.88-8.9,19.88-19.88v-160.28l15.43-9.84-4.78-3.68Z"/>
            </g>
            <g>
              <path class="cls-4" d="m208.32,155.54c4.34,6.67,6.87,14.62,6.87,23.17,0,23.49-19.04,42.53-42.53,42.53-10.33,0-19.8-3.69-27.17-9.81,7.59,11.66,20.72,19.37,35.67,19.37,23.49,0,42.53-19.04,42.53-42.53,0-13.16-5.98-24.92-15.37-32.72Z"/>
              <g class="cls-3">
                <path class="cls-6" d="m145.6,419.01c17.56,2.24,32.5-10.69,24.42-32.21-5.03-13.39-32.48-53.73-32.48-53.73l27.82,53.12c2.36,4.51,2.82,9.66,1.31,14.51-1.52,4.85-4.83,8.82-9.34,11.18-2.76,1.45-5.77,2.18-8.81,2.18-1.91,0-3.83-.29-5.7-.88-4.85-1.52-8.82-4.83-11.18-9.34l-3.37-5.95v6.59s4.07,12.83,17.33,14.52Z"/>
              </g>
            </g>
          </g>
          <g>
            <circle class="cls-1" cx="310.2" cy="186.82" r="42.53" transform="translate(-47.88 132.93) rotate(-22.5)"/>
            <path class="cls-1" d="m232.9,269.36v41.92l31.61-19.59.32,137.95c0,10.98,8.9,19.88,19.88,19.88h66.01c10.98,0,19.88-8.9,19.88-19.88v-33.17l-3.37,5.95c-2.36,4.5-6.33,7.82-11.18,9.34-1.87.59-3.79.88-5.7.88-3.03,0-6.04-.73-8.81-2.18-4.5-2.36-7.82-6.33-9.34-11.18-1.52-4.85-1.05-10,1.31-14.51l27.82-53.12c.3-.58,1.02-.8,1.61-.5.58.31.81,1.02.5,1.61l-27.82,53.12c-2.06,3.94-2.47,8.45-1.14,12.69,1.33,4.24,4.23,7.72,8.17,9.78,3.94,2.07,8.45,2.47,12.69,1.15,4.25-1.33,7.72-4.23,9.8-8.2l17.8-31.41,11.06-21.12c20.51-39.16,6.39-84.04-32.71-104.67-19.34-10.2-51.95-8.24-62.68-6.23-13.55,2.53-30.73,8.99-44.43,17.99l-21.27,13.52Z"/>
            <g>
              <path class="cls-2" d="m283.04,154.12c-4.34,6.67-6.87,14.62-6.87,23.17,0,23.49,19.04,42.53,42.53,42.53,10.33,0,19.8-3.69,27.17-9.81-7.59,11.66-20.72,19.37-35.67,19.37-23.49,0-42.53-19.04-42.53-42.53,0-13.16,5.98-24.92,15.37-32.72Z"/>
              <g class="cls-3">
                <path class="cls-1" d="m345.69,417.57c-17.56,2.24-32.5-10.69-24.42-32.21,5.03-13.39,32.48-53.73,32.48-53.73l-27.82,53.12c-2.36,4.51-2.82,9.66-1.31,14.51,1.52,4.85,4.83,8.82,9.34,11.18,2.76,1.45,5.77,2.18,8.81,2.18,1.91,0,3.83-.29,5.7-.88,4.85-1.52,8.82-4.83,11.18-9.34l3.37-5.95v6.59s-4.07,12.83-17.33,14.52Z"/>
              </g>
            </g>
          </g>
          <g>
            <circle class="cls-11" cx="250" cy="296.54" r="32.56"/>
            <path class="cls-11" d="m331.85,423.41l-8.01-45.2c-4.92-27.75-26.26-46.71-52.51-48.87-.63-.13-1.26-.22-1.92-.22h-38.82c-.65,0-1.29.09-1.92.22-26.25,2.16-47.59,21.12-52.51,48.87l-8.01,45.2c-1.32,7.43,3.64,14.52,11.07,15.83,7.43,1.32,14.52-3.64,15.83-11.07l8.01-45.2c1.66-9.35,6.55-16.76,13.39-21.35l-15.73,111.11c0,8.4,5.23,15.22,11.69,15.22h75.18c6.46,0,11.69-6.81,11.69-15.22l-15.73-111.11c6.83,4.59,11.73,12,13.39,21.35l8.01,45.2c1.32,7.43,8.41,12.38,15.83,11.07,7.43-1.32,12.38-8.41,11.07-15.83Z"/>
          </g>
          <path class="cls-5" d="m282.1,286.06c-2.6,15.38-15.98,27.11-32.1,27.11s-29.5-11.72-32.1-27.11c-.3,1.78-.46,3.6-.46,5.46,0,17.98,14.58,32.56,32.56,32.56s32.56-14.58,32.56-32.56c0-1.86-.16-3.68-.46-5.46Z"/>
        </g>
      </g>
    </g>
  </g>
</svg>