<?xml version="1.0" encoding="utf-8"?>
<!-- Generator: Adobe Illustrator 27.2.0, SVG Export Plug-In . SVG Version: 6.00 Build 0)  -->
<svg version="1.1" xmlns="http://www.w3.org/2000/svg" xmlns:xlink="http://www.w3.org/1999/xlink" x="0px" y="0px"
	 viewBox="0 0 1122 1122" style="enable-background:new 0 0 1122 1122;" xml:space="preserve">
<style type="text/css">
	.st0{fill:#FFFFFF;}
	.st1{fill:#686868;}
	.st2{fill:#D4A067;}
	.st3{fill:#DDAC7A;}
</style>
<g id="Bg">
	<rect class="st0" width="1122" height="1122"/>
	<line class="st1" x1="772" y1="803" x2="509" y2="803"/>
</g>
<g id="Object">
	<g>
		<path class="st2" d="M521.24,505.55L271.66,740.37c-1.45,1.37-2.28,3.27-2.31,5.27c-0.03,2.01,0.75,3.93,2.15,5.35l39.87,39.87
			c1.43,1.42,3.35,2.2,5.35,2.17c2-0.03,3.91-0.87,5.28-2.33l234.89-249.52c2.73-2.91,2.67-7.47-0.16-10.31l-25.18-25.18
			C528.72,502.89,524.16,502.81,521.24,505.55z"/>
		<path class="st3" d="M761.14,785.72c-1.53-1.51-3.55-2.36-5.7-2.36H508.38c-2.12,0-4.19,0.87-5.69,2.36
			c-1.51,1.51-2.36,3.59-2.36,5.7v27.54h-28.2v27.52h-42.97v27.52h405.5v-27.52H791.7v-27.52h-28.2v-27.54
			C763.5,789.27,762.66,787.25,761.14,785.72z"/>
		<path class="st2" d="M484.46,429.85l143.48,143.48l98.26-98.27c0.98-0.98,2.06-1.75,3.14-2.57L585.3,328.45
			c-0.81,1.07-1.59,2.16-2.56,3.13L484.46,429.85z"/>
		<path class="st3" d="M729.34,472.49c-1.07,0.82-2.15,1.59-3.14,2.57l-98.26,98.27l-1.39,1.38c-11.8,11.8-11.8,30.94,0,42.74
			c11.8,11.79,30.93,11.79,42.73,0l99.65-99.67c11.8-11.8,11.8-30.92,0-42.72C758.12,464.23,741.19,463.46,729.34,472.49z"/>
		<path class="st3" d="M540.01,288.86l-99.65,99.65c-11.8,11.8-11.8,30.94,0,42.74c11.8,11.79,30.93,11.79,42.72,0l1.38-1.4
			l98.28-98.27c0.97-0.97,1.75-2.06,2.56-3.13c9.04-11.85,8.25-28.76-2.56-39.59C570.94,277.06,551.81,277.06,540.01,288.86z"/>
	</g>
</g>
</svg>
