<?xml version="1.0" encoding="utf-8"?>
<!-- Generator: Adobe Illustrator 25.2.1, SVG Export Plug-In . SVG Version: 6.00 Build 0)  -->
<svg version="1.1" id="Capa_2_1_" xmlns="http://www.w3.org/2000/svg" xmlns:xlink="http://www.w3.org/1999/xlink" x="0px" y="0px"
	 viewBox="0 0 594 594" style="enable-background:new 0 0 594 594;" xml:space="preserve">
<style type="text/css">
	.st0{fill:#D4A067;}
	.st1{fill:#DDAC7A;}
</style>
<g id="Object">
	<path class="st0" d="M266.2,225.5L16.7,460.4c-1.5,1.4-2.3,3.3-2.3,5.3c0,2,0.8,3.9,2.2,5.4l39.9,39.9c1.4,1.4,3.3,2.2,5.3,2.2
		s3.9-0.9,5.3-2.3l234.9-249.5c2.7-2.9,2.7-7.5-0.2-10.3l-25.2-25.2C273.7,222.9,269.2,222.8,266.2,225.5L266.2,225.5z"/>
	<path class="st0" d="M506.1,505.7c-1.5-1.5-3.5-2.4-5.7-2.4H253.4c-2.1,0-4.2,0.9-5.7,2.4c-1.5,1.5-2.4,3.6-2.4,5.7V539h-28.2v27.5
		h-43V594h405.5v-27.5h-43V539h-28.2v-27.5C508.5,509.3,507.6,507.2,506.1,505.7L506.1,505.7z"/>
	<path class="st0" d="M229.4,149.8l143.5,143.5l98.3-98.3c1-1,2.1-1.8,3.1-2.6l-144-144c-0.8,1.1-1.6,2.2-2.6,3.1L229.4,149.8
		L229.4,149.8z"/>
	<path class="st1" d="M474.3,192.5c-1.1,0.8-2.1,1.6-3.1,2.6l-98.3,98.3l-1.4,1.4c-11.8,11.8-11.8,30.9,0,42.7
		c11.8,11.8,30.9,11.8,42.7,0l99.7-99.7c11.8-11.8,11.8-30.9,0-42.7C503.1,184.2,486.2,183.4,474.3,192.5L474.3,192.5z"/>
	<path class="st1" d="M285,8.8l-99.6,99.7c-11.8,11.8-11.8,30.9,0,42.7c11.8,11.8,30.9,11.8,42.7,0l1.4-1.4l98.3-98.3
		c1-1,1.8-2.1,2.6-3.1c9-11.9,8.2-28.8-2.6-39.6C315.9-3,296.8-3,285,8.8L285,8.8z"/>
</g>
</svg>
