<?xml version="1.0" encoding="UTF-8"?>
<svg id="Capa_2" data-name="Capa 2" xmlns="http://www.w3.org/2000/svg" viewBox="0 0 565.31 593.99">
  <defs>
    <style>
      .cls-1 {
        fill: #d4a067;
      }

      .cls-2 {
        fill: #ddac7a;
      }
    </style>
  </defs>
  <g id="Object">
    <path class="cls-1" d="m251.89,225.54L2.31,460.36c-1.45,1.37-2.28,3.27-2.31,5.27-.03,2.01.75,3.93,2.15,5.35l39.87,39.87c1.43,1.42,3.35,2.2,5.35,2.17,2-.03,3.91-.87,5.28-2.33l234.89-249.52c2.73-2.91,2.67-7.47-.16-10.31l-25.18-25.18c-2.83-2.82-7.39-2.9-10.31-.16Z"/>
    <path class="cls-1" d="m491.79,505.71c-1.53-1.51-3.55-2.36-5.7-2.36h-247.06c-2.12,0-4.19.87-5.69,2.36-1.51,1.51-2.36,3.59-2.36,5.7v27.54h-28.2v27.52h-42.97v27.52h405.5v-27.52h-42.96v-27.52h-28.2v-27.54c0-2.14-.84-4.17-2.36-5.7Z"/>
    <path class="cls-1" d="m215.11,149.84l143.48,143.48,98.26-98.27c.98-.98,2.06-1.75,3.14-2.57L315.95,48.44c-.81,1.07-1.59,2.16-2.56,3.13l-98.28,98.27Z"/>
    <path class="cls-2" d="m459.99,192.48c-1.07.82-2.15,1.59-3.14,2.57l-98.26,98.27-1.39,1.38c-11.8,11.8-11.8,30.94,0,42.74,11.8,11.79,30.93,11.79,42.73,0l99.65-99.67c11.8-11.8,11.8-30.92,0-42.72-10.82-10.83-27.74-11.6-39.59-2.57Z"/>
    <path class="cls-2" d="m270.66,8.85l-99.65,99.65c-11.8,11.8-11.8,30.94,0,42.74,11.8,11.79,30.93,11.79,42.72,0l1.38-1.4,98.28-98.27c.97-.97,1.75-2.06,2.56-3.13,9.04-11.85,8.25-28.76-2.56-39.59-11.8-11.8-30.93-11.8-42.73,0Z"/>
  </g>
</svg>