<?xml version="1.0" encoding="UTF-8"?>
<svg id="Capa_2" data-name="Capa 2" xmlns="http://www.w3.org/2000/svg" viewBox="0 0 500 500">
  <defs>
    <style>
      .cls-1 {
        fill: #d4a067;
      }

      .cls-2 {
        fill: none;
      }
    </style>
  </defs>
  <g id="Capa_1-2" data-name="Capa 1">
    <path class="cls-2" d="m313.84,500h-128.65c8.81-3.57,15.96-9.11,17.97-18.77,4.04-19.39-.29-44.44-20.19-57.65-23.32-15.48-49.15-24.86-77.39-25.69-30.64-.91-58.24,9.32-83.9,25.25-7.75,4.81-13.25,11.95-16.77,20.36C2.93,448.22,1.61,453.22,0,458.09c0-152.7,0-305.39,0-458.09h500v500h-20.47c10.09-3.49,17.07-10.08,18.97-20.76.93-5.2.74-10.69.42-16.02-.96-16.24-7.16-30.32-20.82-39.42-23.46-15.62-49.41-25.01-77.81-25.94-27.32-.89-52.11,8.05-76.06,20.45-24.66,12.77-32.39,37.06-28.79,61.02,1.31,8.68,6.46,15.05,14.58,18.8,1.28.59,2.54,1.24,3.81,1.87Zm-64.47-272c25.5,0,51,.03,76.5-.01,12.68-.02,22.53-7.8,24.93-20.25,1-5.19,1.15-10.67.83-15.97-.97-16.15-6.77-30.51-20.38-39.72-22.92-15.52-48.36-24.81-76.25-26.24-24.75-1.26-47.91,5.08-69.74,16.25-8.14,4.17-16.43,8.86-23.05,15.03-12.59,11.73-15.53,27.47-15.03,44.15.48,15.98,11.16,26.75,27.14,26.76,25.01.02,50.02,0,75.04,0Zm-90.53,101.87c0-31.13-25.5-56.79-56.52-56.88-31.23-.09-57.19,25.74-57.17,56.9.02,30.94,25.81,56.83,56.71,56.91,31.28.09,56.99-25.6,56.99-56.93Zm238.24-56.88c-31.06-.06-56.85,25.54-56.91,56.5-.06,31.5,25.36,57.23,56.61,57.32,31.15.08,57.2-25.94,57.08-57.02-.11-31.04-25.81-56.73-56.79-56.79Zm-90.88-215.09c.14-30.94-24.91-56.74-55.26-56.91-32.54-.18-58.01,24.56-58.14,56.47-.12,31.46,25.36,57.09,56.72,57.05,31.23-.03,56.53-25.31,56.67-56.61Zm-56.7,286.72c2.03,1.6,3.68,2.88,5.32,4.19,14.44,11.55,28.84,23.15,43.34,34.63,7.44,5.9,17.2,2.99,19.22-5.69,1.32-5.67-1.58-9.58-5.79-12.93-15.62-12.42-31.15-24.94-46.82-37.29-2.65-2.09-3.81-4.24-3.77-7.72.18-18.82.13-37.65.06-56.47-.03-7.57-4.51-12.62-11.08-12.83-7.1-.23-11.99,4.88-12.02,12.86-.07,18.18-.19,36.35.09,54.53.07,4.86-1.4,7.91-5.29,10.91-15.28,11.8-30.21,24.03-45.33,36.04-4.22,3.35-7.11,7.25-5.79,12.92,2.02,8.67,11.77,11.58,19.23,5.67,16.14-12.78,32.19-25.68,48.64-38.82Z"/>
    <path class="cls-1" d="m313.84,500c-1.27-.62-2.53-1.28-3.81-1.87-8.12-3.74-13.27-10.12-14.58-18.8-3.61-23.96,4.13-48.25,28.79-61.02,23.95-12.4,48.74-21.34,76.06-20.45,28.41.93,54.35,10.31,77.81,25.94,13.66,9.1,19.86,23.18,20.82,39.42.31,5.32.5,10.81-.42,16.02-1.9,10.68-8.89,17.28-18.97,20.76h-165.69Zm82.89-22.75c24.67,0,49.35,0,74.02-.02,2.17,0,4.5.58,5.31-2.72,2.59-10.5-2.23-26.27-11.12-32-18.77-12.1-39.21-19.97-61.72-21.49-23.22-1.57-44.27,5.69-64.83,15.66-14.76,7.16-21.56,18.21-20.83,34.5.21,4.61,1.36,6.2,6.12,6.16,24.35-.21,48.7-.09,73.05-.1Z"/>
    <path class="cls-1" d="m11.62,458.08c1.61-4.87,2.93-9.87,4.91-14.59,3.52-8.42,9.02-15.55,16.77-20.36,25.67-15.92,53.26-26.15,83.9-25.25,28.23.84,54.06,10.21,77.39,25.69,19.9,13.21,24.23,38.26,20.19,57.65-2.01,9.67-9.16,15.21-17.97,18.77H31.11c-10.29-3.21-16.26-10.54-19.49-20.47,0-7.15,0-14.29,0-21.44Zm101.74,19.16c13.64,0,27.27,0,40.91,0,11.2,0,22.4.11,33.6-.12,1.68-.03,4.44-1.28,4.82-2.54,3.13-10.26-2.16-26.43-11.27-32.27-18.66-11.96-38.96-19.78-61.29-21.3-23.75-1.62-45.2,5.9-66.14,16.27-14.6,7.23-20.23,18.64-19.68,34.23.15,4.34,1.47,5.86,6.01,5.82,24.35-.21,48.7-.1,73.05-.1Z"/>
    <path class="cls-1" d="m249.37,228c-25.01,0-50.02.01-75.04,0-15.98-.01-26.65-10.78-27.14-26.76-.51-16.68,2.44-32.42,15.03-44.15,6.62-6.17,14.91-10.86,23.05-15.03,21.82-11.17,44.98-17.51,69.74-16.25,27.89,1.42,53.33,10.72,76.25,26.24,13.61,9.22,19.41,23.57,20.38,39.72.32,5.3.17,10.78-.83,15.97-2.4,12.45-12.26,20.23-24.93,20.25-25.5.05-51,.01-76.5.02Zm.14-23.12c23.07,0,46.13.08,69.2-.03,10.85-.05,9.89,2.16,9.93-10.21.03-9.78-2.8-18.77-11.09-24.23-17.81-11.73-37.39-19.29-58.8-21.33-27.33-2.6-51.74,6.26-74.94,19.56-5.57,3.19-9.68,7.98-11.25,14.13-1.38,5.41-1.46,11.15-2.19,16.74-.57,4.36,1.36,5.48,5.56,5.45,24.53-.18,49.06-.09,73.59-.09Z"/>
    <path class="cls-1" d="m397.09,272.98c30.98.06,56.68,25.76,56.79,56.79.11,31.08-25.94,57.1-57.08,57.02-31.25-.08-56.67-25.82-56.61-57.32.06-30.96,25.84-56.56,56.91-56.5Zm-.17,23.15c-18.81.02-33.6,14.72-33.73,33.53-.13,18.93,14.85,33.99,33.81,33.98,18.87-.01,33.92-15.16,33.84-34.06-.08-18.53-15.23-33.47-33.92-33.45Z"/>
    <path class="cls-1" d="m249.51,344.61c-16.45,13.14-32.5,26.04-48.64,38.82-7.46,5.91-17.21,3-19.23-5.67-1.32-5.67,1.58-9.57,5.79-12.92,15.11-12.01,30.05-24.25,45.33-36.04,3.89-3,5.37-6.05,5.29-10.91-.28-18.17-.16-36.35-.09-54.53.03-7.98,4.92-13.09,12.02-12.86,6.57.21,11.05,5.25,11.08,12.83.07,18.82.12,37.65-.06,56.47-.03,3.47,1.12,5.63,3.77,7.72,15.67,12.35,31.2,24.88,46.82,37.29,4.21,3.34,7.1,7.26,5.79,12.93-2.02,8.68-11.77,11.59-19.22,5.69-14.49-11.48-28.89-23.09-43.34-34.63-1.64-1.31-3.29-2.6-5.32-4.19Z"/>
    <path class="cls-1" d="m102.36,272.99c30.98.06,56.68,25.76,56.79,56.79.11,31.08-25.94,57.1-57.08,57.02-31.25-.08-56.67-25.82-56.61-57.32.06-30.96,25.84-56.56,56.91-56.5Zm-.17,23.15c-18.81.02-33.6,14.72-33.73,33.53-.13,18.93,14.85,33.99,33.81,33.98,18.87-.01,33.92-15.16,33.84-34.06-.08-18.53-15.23-33.47-33.92-33.45Z"/>
    <path class="cls-1" d="m250.06.84c30.98.06,56.68,25.76,56.79,56.79.11,31.08-25.94,57.1-57.08,57.02-31.25-.08-56.67-25.82-56.61-57.32.06-30.96,25.84-56.56,56.91-56.5Zm-.17,23.15c-18.81.02-33.6,14.72-33.73,33.53-.13,18.93,14.85,33.99,33.81,33.98,18.87-.01,33.92-15.16,33.84-34.06-.08-18.53-15.23-33.47-33.92-33.45Z"/>
  </g>
</svg>