<?xml version="1.0" encoding="UTF-8"?>
<svg id="Capa_2" data-name="Capa 2" xmlns="http://www.w3.org/2000/svg" viewBox="0 0 351.09 351.09">
  <defs>
    <style>
      .cls-1 {
        fill: #fff;
      }

      .cls-2 {
        fill: #d4a067;
      }
    </style>
  </defs>
  <g id="Capa_1-2" data-name="Capa 1">
    <path class="cls-1" d="m220.37,351.09h-90.34c6.18-2.51,11.21-6.4,12.62-13.18,2.83-13.61-.2-31.2-14.18-40.48-16.38-10.87-34.51-17.45-54.34-18.04-21.52-.64-40.89,6.55-58.91,17.73-5.44,3.38-9.3,8.39-11.78,14.3C2.06,314.73,1.13,318.24,0,321.66c0-107.22,0-214.44,0-321.66h351.09v351.09h-14.37c7.08-2.45,11.99-7.08,13.32-14.58.65-3.65.52-7.51.3-11.25-.67-11.4-5.02-21.29-14.62-27.68-16.47-10.97-34.69-17.56-54.64-18.21-19.19-.63-36.59,5.65-53.41,14.36-17.31,8.97-22.75,26.02-20.21,42.84.92,6.09,4.53,10.57,10.23,13.2.9.42,1.78.87,2.68,1.31Zm-45.27-190.99c17.9,0,35.81.02,53.71-.01,8.9-.02,15.82-5.48,17.51-14.22.7-3.64.81-7.49.59-11.21-.68-11.34-4.75-21.42-14.31-27.89-16.09-10.9-33.95-17.42-53.54-18.42-17.38-.89-33.64,3.57-48.97,11.41-5.72,2.93-11.54,6.22-16.19,10.55-8.84,8.24-10.91,19.29-10.55,31,.34,11.22,7.84,18.78,19.05,18.79,17.56.01,35.13,0,52.69,0Zm-63.57,71.53c0-21.86-17.91-39.87-39.69-39.94-21.93-.06-40.16,18.08-40.15,39.95.01,21.73,18.12,39.9,39.82,39.96,21.96.06,40.02-17.98,40.02-39.98Zm167.29-39.94c-21.81-.04-39.92,17.93-39.96,39.67-.04,22.12,17.81,40.19,39.75,40.25,21.87.06,40.16-18.21,40.08-40.04-.08-21.79-18.12-39.84-39.88-39.88Zm-63.81-151.03c.1-21.73-17.49-39.84-38.8-39.96-22.85-.13-40.74,17.25-40.82,39.65-.09,22.09,17.81,40.09,39.83,40.06,21.93-.02,39.7-17.77,39.79-39.75Zm-39.81,201.32c1.42,1.12,2.58,2.02,3.73,2.94,10.14,8.11,20.25,16.26,30.43,24.32,5.23,4.14,12.08,2.1,13.49-4,.92-3.98-1.11-6.73-4.06-9.08-10.97-8.72-21.87-17.51-32.87-26.19-1.86-1.47-2.67-2.98-2.65-5.42.13-13.22.09-26.44.04-39.65-.02-5.32-3.17-8.86-7.78-9.01-4.99-.16-8.42,3.43-8.44,9.03-.05,12.76-.13,25.53.06,38.29.05,3.41-.99,5.55-3.72,7.66-10.73,8.28-21.22,16.87-31.83,25.31-2.96,2.35-4.99,5.09-4.07,9.07,1.42,6.09,8.26,8.13,13.5,3.98,11.33-8.97,22.6-18.03,34.15-27.26Z"/>
    <path class="cls-2" d="m220.37,351.09c-.89-.44-1.77-.9-2.68-1.31-5.7-2.63-9.32-7.11-10.23-13.2-2.53-16.83,2.9-33.88,20.21-42.84,16.82-8.71,34.22-14.99,53.41-14.36,19.95.65,38.17,7.24,54.64,18.21,9.59,6.39,13.94,16.28,14.62,27.68.22,3.74.35,7.59-.3,11.25-1.34,7.5-6.24,12.13-13.32,14.58h-116.34Zm58.2-15.97c17.32,0,34.65,0,51.97-.01,1.52,0,3.16.41,3.73-1.91,1.82-7.38-1.56-18.44-7.81-22.47-13.18-8.49-27.53-14.02-43.34-15.09-16.31-1.1-31.09,4-45.52,11-10.36,5.03-15.14,12.78-14.63,24.23.14,3.24.96,4.35,4.3,4.33,17.1-.14,34.19-.07,51.29-.07Z"/>
    <path class="cls-2" d="m8.16,321.65c1.13-3.42,2.06-6.93,3.44-10.25,2.47-5.91,6.34-10.92,11.78-14.3,18.02-11.18,37.4-18.36,58.91-17.73,19.82.59,37.96,7.17,54.34,18.04,13.97,9.27,17.01,26.86,14.18,40.48-1.41,6.79-6.43,10.68-12.62,13.18H21.85c-7.22-2.26-11.42-7.4-13.69-14.37,0-5.02,0-10.04,0-15.06Zm71.44,13.45c9.57,0,19.15,0,28.72,0,7.86,0,15.73.07,23.59-.08,1.18-.02,3.12-.9,3.39-1.78,2.19-7.21-1.52-18.56-7.91-22.66-13.1-8.4-27.35-13.89-43.03-14.96-16.68-1.14-31.74,4.14-46.44,11.42-10.25,5.08-14.2,13.09-13.82,24.04.11,3.05,1.03,4.11,4.22,4.08,17.1-.15,34.19-.07,51.29-.07Z"/>
    <path class="cls-2" d="m175.1,160.09c-17.56,0-35.13,0-52.69,0-11.22,0-18.71-7.57-19.05-18.79-.35-11.71,1.71-22.76,10.55-31,4.65-4.33,10.47-7.62,16.19-10.55,15.32-7.84,31.59-12.29,48.97-11.41,19.58,1,37.45,7.52,53.54,18.42,9.56,6.47,13.63,16.55,14.31,27.89.22,3.72.12,7.57-.59,11.21-1.69,8.74-8.61,14.2-17.51,14.22-17.9.03-35.81.01-53.71.01Zm.1-16.23c16.2,0,32.39.06,48.59-.02,7.62-.04,6.95,1.51,6.97-7.17.02-6.87-1.97-13.18-7.78-17.01-12.51-8.24-26.25-13.55-41.29-14.98-19.19-1.83-36.33,4.4-52.62,13.74-3.91,2.24-6.79,5.61-7.9,9.92-.97,3.8-1.03,7.83-1.54,11.76-.4,3.06.95,3.85,3.9,3.83,17.22-.12,34.45-.06,51.67-.06Z"/>
    <path class="cls-2" d="m278.82,191.68c21.76.04,39.8,18.09,39.88,39.88.08,21.82-18.21,40.09-40.08,40.04-21.94-.06-39.79-18.13-39.75-40.25.04-21.74,18.15-39.71,39.96-39.67Zm-.12,16.26c-13.21.01-23.59,10.34-23.69,23.55-.09,13.29,10.43,23.86,23.74,23.86,13.25,0,23.82-10.64,23.76-23.91-.05-13.01-10.69-23.5-23.81-23.49Z"/>
    <path class="cls-2" d="m175.2,241.97c-11.55,9.23-22.82,18.28-34.15,27.26-5.24,4.15-12.08,2.11-13.5-3.98-.93-3.98,1.11-6.72,4.07-9.07,10.61-8.43,21.1-17.02,31.83-25.31,2.73-2.11,3.77-4.25,3.72-7.66-.2-12.76-.11-25.52-.06-38.29.02-5.6,3.46-9.19,8.44-9.03,4.61.15,7.76,3.69,7.78,9.01.05,13.22.08,26.44-.04,39.65-.02,2.44.79,3.95,2.65,5.42,11,8.67,21.91,17.47,32.87,26.19,2.95,2.35,4.99,5.1,4.06,9.08-1.42,6.09-8.27,8.14-13.49,4-10.18-8.06-20.29-16.21-30.43-24.32-1.15-.92-2.31-1.82-3.73-2.94Z"/>
    <path class="cls-2" d="m71.88,191.68c21.76.04,39.8,18.09,39.88,39.88.08,21.82-18.21,40.09-40.08,40.04-21.94-.06-39.79-18.13-39.75-40.25.04-21.74,18.15-39.71,39.96-39.67Zm-.12,16.26c-13.21.01-23.59,10.34-23.69,23.55-.09,13.29,10.43,23.86,23.74,23.86,13.25,0,23.82-10.64,23.76-23.91-.05-13.01-10.69-23.5-23.81-23.49Z"/>
    <path class="cls-2" d="m175.58.59c21.76.04,39.8,18.09,39.88,39.88.08,21.82-18.21,40.09-40.08,40.04-21.94-.06-39.79-18.13-39.75-40.25.04-21.74,18.15-39.71,39.96-39.67Zm-.12,16.26c-13.21.01-23.59,10.34-23.69,23.55-.09,13.29,10.43,23.86,23.74,23.86,13.25,0,23.82-10.64,23.76-23.91-.05-13.01-10.69-23.5-23.81-23.49Z"/>
  </g>
</svg>