<?xml version="1.0" encoding="UTF-8"?>
<svg id="Capa_2" data-name="Capa 2" xmlns="http://www.w3.org/2000/svg" viewBox="0 0 397.81 383.49">
  <defs>
    <style>
      .cls-1 {
        fill: #d4a067;
      }

      .cls-2, .cls-3, .cls-4, .cls-5, .cls-6, .cls-7 {
        stroke: #d4a067;
      }

      .cls-2, .cls-3, .cls-5, .cls-7 {
        stroke-width: 5.43px;
      }

      .cls-2, .cls-4, .cls-5 {
        fill: #fff;
      }

      .cls-2, .cls-6, .cls-7 {
        stroke-linecap: round;
        stroke-linejoin: round;
      }

      .cls-3, .cls-4, .cls-5 {
        stroke-miterlimit: 10;
      }

      .cls-3, .cls-6, .cls-7 {
        fill: none;
      }

      .cls-4, .cls-6 {
        stroke-width: 7px;
      }
    </style>
  </defs>
  <g id="Capa_1-2" data-name="Capa 1">
    <path class="cls-6" d="m282.43,129.74v-7.83c0-39.44-37.39-71.42-83.52-71.42s-83.54,31.98-83.54,71.42v7.83c-8.85,0-16.01,8.7-16.01,19.41s7.17,19.41,16.01,19.41c.26,0,.52-.04.79-.05,5.5,34.89,40.43,61.81,82.75,61.81s77.24-26.91,82.75-61.81c.26.01.51.05.77.05,8.85,0,16.01-8.69,16.01-19.41s-7.17-19.41-16.01-19.41Z"/>
    <line class="cls-2" x1="161.48" y1="236.9" x2="161.48" y2="250.72"/>
    <path class="cls-2" d="m161.48,223.07v13.82"/>
    <path class="cls-6" d="m161.48,250.72c-32.35,6.6-64.69,13.2-97.04,19.8,0,0-35.35,4.17-47.18,42.45l-13.76,67.02h390.81l-13.78-67.02c-11.82-38.27-47.18-42.45-47.18-42.45l-97.04-19.8v-27.65c-7.47,3.15-20.57,7.56-37.41,7.57-16.84,0-29.96-4.42-37.43-7.57v27.65Z"/>
    <g>
      <polygon class="cls-7" points="159.86 249.52 123.25 257 165.57 301.07 196.49 268.76 159.86 249.52"/>
      <polyline class="cls-7" points="233.73 251.81 238.14 249.81 274.54 257.24 232.46 301.07 196.49 268.76 233.73 251.81"/>
    </g>
    <polygon class="cls-1" points="198.1 268.76 179.19 288.52 198.1 305.59 218.61 287.18 198.1 268.76"/>
    <polygon class="cls-1" points="207.91 297.46 198.1 305.59 189.72 298.04 166.85 379.66 198.91 379.66 230.94 379.66 207.91 297.46"/>
    <polygon class="cls-5" points="209.89 42.46 206.06 2.72 198.91 2.72 191.72 2.72 187.9 42.46 209.89 42.46"/>
    <path class="cls-4" d="m294.4,107.59c0-26.33-12.9-53.09-38.11-70.65-6.23-4.36-13.14-7.95-20.45-10.75l-2.1-11.57c-9.69-3.84-18.85-5.75-27.15-6.5l3.31,34.34h-21.99l3.31-34.45c-16.62,1.27-27.15,6.62-27.15,6.62l-2.42,11.57c-25.21,9.9-43.51,29.08-52.14,50.22-4.09,10.05-6.1,20.61-6.1,31.17h191"/>
    <line class="cls-3" x1="233.73" y1="14.62" x2="241.04" y2="54.96"/>
    <line class="cls-3" x1="155.64" y1="54.96" x2="164.06" y2="14.62"/>
    <path class="cls-3" d="m134.72,65.77s-9.68,14.52-8.92,25.6h59.71"/>
    <path class="cls-5" d="m295.48,107.59H102.45s-8.7.29-8.61,11.72h210.12c.09-11.44-8.48-11.72-8.48-11.72Z"/>
  </g>
</svg>