<?xml version="1.0" encoding="utf-8"?>
<!-- Generator: Adobe Illustrator 27.2.0, SVG Export Plug-In . SVG Version: 6.00 Build 0)  -->
<svg version="1.1" id="Capa_1" xmlns="http://www.w3.org/2000/svg" xmlns:xlink="http://www.w3.org/1999/xlink" x="0px" y="0px"
	 viewBox="0 0 612 792" style="enable-background:new 0 0 612 792;" xml:space="preserve">
<style type="text/css">
	.st0{fill:none;stroke:#D4A066;stroke-width:5.4314;stroke-linecap:round;stroke-linejoin:round;stroke-miterlimit:10;}
	.st1{fill:#FFFFFF;stroke:#D4A066;stroke-width:5.4314;stroke-linecap:round;stroke-linejoin:round;stroke-miterlimit:10;}
	.st2{fill:none;stroke:#D4A066;stroke-width:5.4314;stroke-miterlimit:10;}
	.st3{fill:#D4A066;}
	.st4{fill:#FFFFFF;stroke:#D4A066;stroke-width:5.4314;stroke-miterlimit:10;}
</style>
<g>
	<path class="st0" d="M434.66,291.5v-13.27c0-66.89-54.25-121.14-121.16-121.14c-66.93,0-121.18,54.25-121.18,121.14v13.27
		c-12.83,0-23.23,14.76-23.23,32.93c0,18.18,10.4,32.93,23.23,32.93c0.38,0,0.76-0.06,1.14-0.09
		c7.98,59.18,58.65,104.83,120.04,104.83c61.36,0,112.05-45.65,120.04-104.83c0.38,0.02,0.74,0.09,1.12,0.09
		c12.83,0,23.23-14.74,23.23-32.93C457.89,306.26,447.49,291.5,434.66,291.5z"/>
	<path class="st1" d="M313.5,462.11"/>
	<path class="st0" d="M576.97,602.28c-17.15-64.92-68.44-72-68.44-72l-140.77-33.58v-46.9c-16.32,8.22-34.75,12.83-54.27,12.83
		c-19.52,0-37.96-4.62-54.29-12.83v46.9l-140.77,33.58c0,0-51.28,7.07-68.44,72L30.03,715.97H313.5h283.46L576.97,602.28z"/>
	<g>
		<polygon class="st0" points="256.86,494.67 203.75,507.36 265.14,582.1 310,527.31 		"/>
		<polygon class="st0" points="370.41,495.16 423.22,507.76 362.18,582.1 310,527.31 		"/>
	</g>
	<polygon class="st2" points="312.33,527.31 284.89,560.82 312.33,589.77 342.08,558.54 	"/>
	<polygon class="st3" points="326.56,575.99 312.33,589.77 300.18,576.96 267,715.42 313.5,715.42 359.97,715.42 	"/>
	<g>
		<polygon class="st2" points="329.44,143.45 323.87,76.03 313.5,76.03 303.08,76.03 297.53,143.45 		"/>
		<path class="st4" d="M452.02,253.92c0-44.66-18.72-90.05-55.29-119.83c-9.04-7.39-19.05-13.49-29.67-18.23l-3.04-19.63
			c-14.06-6.52-27.34-9.76-39.38-11.03l4.8,58.25h-31.9l4.8-58.44c-24.12,2.16-39.38,11.22-39.38,11.22l-3.51,19.63
			c-36.57,16.79-63.12,49.32-75.63,85.19c-5.93,17.04-8.85,34.96-8.85,52.87H452.02"/>
		<line class="st2" x1="364.02" y1="96.23" x2="374.63" y2="164.65"/>
		<line class="st2" x1="250.73" y1="164.65" x2="262.95" y2="96.23"/>
		<path class="st2" d="M220.39,182.98c0,0-14.04,24.63-12.94,43.43h86.62"/>
		<path class="st4" d="M453.59,253.92H313.5H173.58c0,0-12.62,0.49-12.49,19.88H313.5h152.39
			C466.02,254.41,453.59,253.92,453.59,253.92z"/>
	</g>
</g>
</svg>
