<?xml version="1.0" encoding="utf-8"?>
<!-- Generator: Adobe Illustrator 25.2.1, SVG Export Plug-In . SVG Version: 6.00 Build 0)  -->
<svg version="1.1" id="Capa_2_1_" xmlns="http://www.w3.org/2000/svg" xmlns:xlink="http://www.w3.org/1999/xlink" x="0px" y="0px"
	 viewBox="0 0 397.8 397.8" style="enable-background:new 0 0 397.8 397.8;" xml:space="preserve">
<style type="text/css">
	.st0{fill:none;stroke:#D4A067;stroke-width:7;stroke-linecap:round;stroke-linejoin:round;}
	.st1{fill:none;stroke:#D4A067;stroke-width:5.43;stroke-linecap:round;stroke-linejoin:round;}
	.st2{fill:#FFFFFF;stroke:#D4A067;stroke-width:5.43;stroke-linecap:round;stroke-linejoin:round;}
	.st3{fill:#D4A067;}
	.st4{fill:#FFFFFF;stroke:#D4A067;stroke-width:5.43;stroke-miterlimit:10;}
	.st5{fill:#FFFFFF;stroke:#D4A067;stroke-width:7;stroke-miterlimit:10;}
	.st6{fill:none;stroke:#D4A067;stroke-width:5.43;stroke-miterlimit:10;}
</style>
<g id="Capa_1-2">
	<path class="st0" d="M282.4,136.9v-7.8c0-39.4-37.4-71.4-83.5-71.4s-83.5,32-83.5,71.4v7.8c-8.8,0-16,8.7-16,19.4s7.2,19.4,16,19.4
		c0.3,0,0.5,0,0.8-0.1c5.5,34.9,40.4,61.8,82.8,61.8s77.2-26.9,82.8-61.8c0.3,0,0.5,0.1,0.8,0.1c8.9,0,16-8.7,16-19.4
		S291.3,136.9,282.4,136.9z"/>
	<line class="st1" x1="161.5" y1="244.1" x2="161.5" y2="257.9"/>
	<path class="st2" d="M161.5,230.2v13.8"/>
	<path class="st0" d="M161.5,257.9c-32.3,6.6-64.7,13.2-97,19.8c0,0-35.3,4.2-47.2,42.5l-13.8,67h390.8l-13.8-67
		c-11.8-38.3-47.2-42.5-47.2-42.5l-97-19.8v-27.6c-7.5,3.1-20.6,7.6-37.4,7.6c-16.8,0-30-4.4-37.4-7.6L161.5,257.9L161.5,257.9z"/>
	<g>
		<polygon class="st1" points="159.9,256.7 123.2,264.2 165.6,308.2 196.5,275.9 		"/>
		<polyline class="st1" points="233.7,259 238.1,257 274.5,264.4 232.5,308.2 196.5,275.9 233.7,259 		"/>
	</g>
	<polygon class="st3" points="198.1,275.9 179.2,295.7 198.1,312.8 218.6,294.3 	"/>
	<polygon class="st3" points="207.9,304.6 198.1,312.8 189.7,305.2 166.9,386.8 198.9,386.8 230.9,386.8 	"/>
	<polygon class="st4" points="209.9,49.6 206.1,9.9 198.9,9.9 191.7,9.9 187.9,49.6 	"/>
	<path class="st5" d="M294.4,114.7c0-26.3-12.9-53.1-38.1-70.7c-6.2-4.4-13.1-8-20.4-10.8l-2.1-11.6c-9.7-3.8-18.9-5.8-27.1-6.5
		l3.3,34.3h-22l3.3-34.4c-16.6,1.3-27.1,6.6-27.1,6.6l-2.4,11.6c-25.2,9.9-43.5,29.1-52.1,50.2c-4.1,10.1-6.1,20.6-6.1,31.2H294.4"
		/>
	<line class="st6" x1="233.7" y1="21.8" x2="241" y2="62.1"/>
	<line class="st6" x1="155.6" y1="62.1" x2="164.1" y2="21.8"/>
	<path class="st6" d="M134.7,72.9c0,0-9.7,14.5-8.9,25.6h59.7"/>
	<path class="st4" d="M295.5,114.7h-193c0,0-8.7,0.3-8.6,11.7H304C304,115,295.5,114.7,295.5,114.7L295.5,114.7z"/>
</g>
</svg>
